<svg version="1.1" id="Layer_1" xmlns="http://www.w3.org/2000/svg" xmlns:xlink="http://www.w3.org/1999/xlink" x="0px" y="0px"
	 width="100%" viewBox="0 0 2362 708" enable-background="new 0 0 2362 708" xml:space="preserve">
<path fill="#FFFFFF" opacity="1.000000" stroke="none" 
	d="
M1544.000000,709.000000 
	C1030.833374,709.000000 518.166687,708.995178 5.500018,709.092834 
	C1.750972,709.093567 0.904905,708.249207 0.906577,704.499939 
	C1.010532,471.500000 1.010532,238.500000 0.906577,5.500041 
	C0.904904,1.750805 1.751016,0.906882 5.500011,0.907339 
	C789.833313,1.003134 1574.166626,1.003135 2358.500000,0.907339 
	C2362.249023,0.906882 2363.095215,1.750804 2363.093506,5.500041 
	C2362.989502,238.500000 2362.989746,471.500000 2363.093506,704.499939 
	C2363.095215,708.249207 2362.249268,709.094727 2358.500000,709.093262 
	C2087.166748,708.990967 1815.833374,709.000000 1544.000000,709.000000 
z"/>
<path fill="#000000" opacity="1.000000" stroke="none" 
	d="
M716.000000,381.078552 
	C715.209412,394.074249 713.291809,406.422852 711.180847,418.797272 
	C707.892822,438.071411 702.527466,456.700378 696.021606,475.064697 
	C688.212585,497.107605 677.874207,517.913208 665.687317,537.853577 
	C653.955872,557.048828 640.459473,574.816162 625.283203,591.463928 
	C614.039856,603.797485 601.848267,614.924744 589.062378,625.571777 
	C576.708801,635.858765 563.758606,645.208435 550.010803,653.502014 
	C535.137634,662.474426 519.768982,670.361389 503.753998,677.208252 
	C484.332245,685.511719 464.328766,691.748291 443.847687,696.485657 
	C432.328705,699.150085 420.587494,700.789429 408.790833,702.139465 
	C392.728729,703.977722 376.630676,705.562622 360.526550,704.826965 
	C342.286224,703.993713 324.105255,702.363525 305.995819,699.253174 
	C281.434296,695.034790 257.732513,688.101501 234.793747,678.806885 
	C207.866852,667.896301 182.669510,653.630127 159.443237,636.007568 
	C147.953217,627.289734 136.986237,618.033630 126.467331,608.136658 
	C102.466995,585.555481 82.617065,559.844482 65.796791,531.571350 
	C53.413570,510.756409 43.776337,488.786591 35.999126,465.941742 
	C29.711849,447.473450 25.063780,428.537933 22.165960,409.280762 
	C20.366760,397.324402 19.317350,385.225342 18.726728,373.072845 
	C18.317114,364.644745 17.672392,356.187653 18.143904,347.812683 
	C18.933887,333.781128 19.910118,319.767242 21.777475,305.774780 
	C24.972586,281.833221 30.851568,258.673035 39.001957,236.032425 
	C46.912796,214.057236 57.079422,193.170914 69.204269,173.178467 
	C77.434814,159.607269 86.355331,146.496033 96.461014,134.359802 
	C108.058510,120.432022 120.428017,107.157738 134.139999,95.113953 
	C147.131790,83.702728 160.632309,73.070175 175.004242,63.516602 
	C197.837845,48.338238 222.190842,36.292755 247.969513,26.820728 
	C266.614563,19.969856 285.670959,14.873776 305.074341,11.215294 
	C317.216675,8.925879 329.617645,7.839412 341.999573,6.782800 
	C355.954315,5.591971 369.877777,5.809034 383.764648,6.200144 
	C397.909729,6.598524 411.987274,8.426608 426.039307,10.759631 
	C446.780273,14.203191 467.013367,19.323902 486.712341,26.412506 
	C514.648743,36.465286 541.008972,49.808113 565.334229,66.907440 
	C583.241272,79.495094 599.758606,93.578796 615.363525,109.139648 
	C633.861877,127.585762 649.845642,147.685165 663.843933,169.490845 
	C673.739624,184.905807 681.995056,201.211365 689.200562,218.137497 
	C696.774597,235.929337 702.763000,254.143341 707.369446,272.852325 
	C710.348328,284.951416 712.298828,297.242432 714.123413,309.583130 
	C717.134094,329.945862 716.971252,350.382751 717.090515,370.850189 
	C717.110107,374.207489 715.468323,377.264801 716.000000,381.078552 
z"/>
<path fill="#000000" opacity="1.000000" stroke="none" 
	d="
M2210.983887,411.862396 
	C2206.317627,423.865936 2201.581055,435.432709 2197.037598,447.074799 
	C2188.480957,469.000977 2179.882324,490.913239 2171.611328,512.947510 
	C2167.776123,523.163940 2163.910156,533.373474 2158.913574,543.046997 
	C2150.246582,559.826294 2139.652100,575.138611 2121.856201,583.523193 
	C2113.195068,587.604004 2103.950684,589.817139 2094.233154,590.051697 
	C2078.123779,590.440491 2062.234619,589.709717 2046.871460,584.076843 
	C2040.660767,581.799683 2034.772339,578.906738 2028.900391,575.949158 
	C2026.254150,574.616272 2025.260986,572.782837 2026.766113,569.528137 
	C2032.686035,556.726685 2038.285156,543.777039 2044.014404,530.887268 
	C2045.832886,526.795837 2048.659668,526.090698 2052.553955,528.166931 
	C2060.888184,532.610229 2069.682373,535.442566 2079.209961,536.044983 
	C2091.335449,536.811584 2098.617432,530.201233 2105.181396,520.995605 
	C2110.217041,513.933594 2107.078857,508.198517 2104.505859,502.002502 
	C2091.237061,470.048309 2077.940186,438.105652 2064.628174,406.169525 
	C2054.581543,382.067810 2044.449585,358.001556 2034.480225,333.868042 
	C2032.981079,330.238708 2031.041016,328.760925 2026.858276,328.875153 
	C2014.203125,329.220612 2001.526367,329.224976 1988.871094,328.881561 
	C1984.258667,328.756409 1982.843994,329.626038 1982.862549,334.643311 
	C1983.077515,392.966278 1983.000244,451.290344 1982.999512,509.614105 
	C1982.999512,517.192078 1982.185913,517.999268 1974.555786,517.999756 
	C1958.725098,518.000732 1942.894165,517.966797 1927.063599,518.018311 
	C1921.650024,518.035889 1919.865723,516.519104 1919.883911,510.861938 
	C1920.072144,452.038849 1919.932007,393.214722 1920.127319,334.391663 
	C1920.143188,329.616730 1918.683960,328.655182 1914.375244,328.910858 
	C1908.397217,329.265594 1902.382324,328.976135 1896.383423,329.008026 
	C1892.107422,329.030762 1889.820312,327.620117 1889.908325,322.680206 
	C1890.166138,308.187164 1890.151733,293.684082 1889.912109,279.190430 
	C1889.835327,274.550537 1891.917847,273.013153 1896.012695,273.004211 
	C1903.011597,272.988983 1910.012695,272.898071 1917.008057,273.055298 
	C1919.437012,273.109894 1920.075073,272.358643 1920.053345,269.978699 
	C1919.955322,259.279419 1919.732300,248.593918 1921.950562,237.988052 
	C1926.814209,214.733215 1937.617554,196.422714 1960.804443,186.851700 
	C1977.529053,179.948166 1994.858765,180.574570 2012.137451,181.239548 
	C2021.239624,181.589859 2030.268066,184.289276 2039.287109,186.136444 
	C2042.653564,186.825882 2045.078003,188.595703 2045.044922,192.725662 
	C2044.928589,207.222336 2045.045166,221.720779 2044.970337,236.218018 
	C2044.949585,240.229172 2042.068726,242.163269 2037.711426,240.856415 
	C2032.175049,239.195908 2026.696777,237.125824 2020.963379,236.529282 
	C2012.171875,235.614563 2003.046387,234.364822 1994.764771,238.237122 
	C1985.309814,242.658203 1982.743774,251.868240 1982.118408,261.279694 
	C1981.274902,273.976166 1981.633545,274.000000 1994.279785,274.000000 
	C2020.108887,274.000000 2045.938843,274.106293 2071.766113,273.891846 
	C2075.907227,273.857452 2077.714111,275.696564 2078.983398,279.027466 
	C2089.132812,305.657074 2099.289307,332.284058 2109.447510,358.910248 
	C2118.295166,382.101868 2127.147461,405.291809 2136.000244,428.481567 
	C2137.223877,431.686951 2138.461914,434.886902 2140.135742,439.241028 
	C2145.015625,425.355530 2149.533203,412.605408 2153.979004,399.830383 
	C2168.036865,359.434326 2182.053467,319.023926 2196.137939,278.637115 
	C2197.246582,275.458710 2199.295166,273.847198 2203.157227,273.897980 
	C2220.818115,274.130188 2238.483643,273.985016 2256.147461,274.008881 
	C2261.641846,274.016296 2263.080078,276.376556 2261.117920,281.463928 
	C2251.032227,307.611450 2241.041748,333.795532 2230.972168,359.949219 
	C2224.355469,377.134949 2217.660645,394.290588 2210.983887,411.862396 
z"/>
<path fill="#000000" opacity="1.000000" stroke="none" 
	d="
M1221.131836,269.000000 
	C1238.225586,268.340790 1254.497681,269.624878 1270.178711,275.926544 
	C1288.514771,283.295227 1303.806396,294.433746 1316.432617,309.725403 
	C1330.292603,326.511414 1337.930420,345.968414 1341.776123,366.897003 
	C1344.476929,381.595612 1344.619995,396.550781 1343.206177,411.620300 
	C1341.443726,430.403931 1336.642700,448.038513 1327.776978,464.614807 
	C1320.660522,477.920532 1310.774292,488.809845 1299.203735,498.456970 
	C1285.225464,510.111694 1269.161621,517.124084 1251.603394,520.633606 
	C1228.361938,525.278992 1205.627441,522.903809 1184.217529,512.516968 
	C1173.771851,507.449249 1164.572632,500.268585 1156.894653,491.368774 
	C1156.520386,490.934875 1156.011108,490.617340 1155.000000,489.775360 
	C1155.000000,492.086914 1155.000000,493.687531 1155.000000,495.288177 
	C1155.000000,524.118042 1155.007080,552.947937 1154.994507,581.777832 
	C1154.991821,588.168457 1154.163086,588.998047 1148.020386,588.999084 
	C1131.355713,589.001892 1114.690063,588.900940 1098.026978,589.065125 
	C1093.494751,589.109741 1091.936523,587.410706 1091.939941,582.924438 
	C1092.018066,481.603333 1092.024292,380.282135 1091.918457,278.961090 
	C1091.913818,274.512543 1093.959106,273.039185 1097.741333,273.025879 
	C1114.572388,272.966766 1131.404053,272.952148 1148.234985,273.031738 
	C1152.824829,273.053467 1154.932251,275.359131 1154.980225,280.127289 
	C1155.055176,287.575684 1155.000000,295.025391 1155.000000,303.069946 
	C1172.867920,283.123535 1194.075439,270.822083 1221.131836,269.000000 
z"/>
<path fill="#000000" opacity="1.000000" stroke="none" 
	d="
M1060.277100,471.286438 
	C1052.902222,485.452026 1042.025391,495.768707 1029.015503,503.977631 
	C1013.769592,513.597290 996.727356,518.243530 979.158630,520.894714 
	C966.685425,522.776917 953.966431,522.745667 941.443909,521.844116 
	C912.982849,519.795227 886.011963,512.011047 860.850769,498.367889 
	C848.018677,491.409973 836.232178,482.901672 825.082092,473.524445 
	C820.073181,469.311951 819.968872,467.363922 823.889282,462.652496 
	C834.015137,450.483521 844.102661,438.280701 854.404297,426.261780 
	C856.320984,424.025635 858.882812,422.802460 862.072021,425.419739 
	C870.575500,432.398193 879.115417,439.373169 888.582642,445.052734 
	C903.592834,454.057709 919.428223,460.821014 936.995667,463.051422 
	C944.146179,463.959290 951.304871,465.432800 958.482666,464.897858 
	C972.032227,463.888153 985.234497,462.154724 996.729126,453.220306 
	C1006.161499,445.888733 1009.689331,432.489838 1007.620911,422.218475 
	C1004.889404,408.654388 994.043945,402.817627 982.702209,398.076965 
	C963.509216,390.054504 942.955505,386.605164 923.025818,381.060883 
	C901.864197,375.173828 881.092773,368.139557 863.571228,354.635223 
	C849.081482,343.467590 839.368530,328.675446 835.874023,310.113678 
	C833.929932,299.787109 833.389099,289.434204 834.151489,279.131989 
	C835.385925,262.449829 840.865051,246.977722 851.040588,233.559448 
	C867.524597,211.822433 889.974609,199.960129 916.442993,194.976151 
	C927.268250,192.937775 938.179749,191.665085 949.170227,192.057526 
	C978.952759,193.120941 1007.465393,199.302979 1033.752808,213.973999 
	C1042.634888,218.931046 1051.056763,224.587708 1059.170654,230.701813 
	C1063.151123,233.701279 1063.601685,236.901459 1060.518311,240.959763 
	C1051.132324,253.313446 1042.390625,266.119904 1033.564453,278.869812 
	C1030.864990,282.769257 1028.393677,282.868927 1024.573608,280.092590 
	C1008.352478,268.303192 991.061279,258.338776 971.531738,253.384491 
	C955.473633,249.310852 938.997620,247.532318 922.796448,253.063522 
	C913.017090,256.402252 903.626465,261.176208 900.131531,271.737762 
	C893.960693,290.385498 899.505493,302.517853 915.447449,310.741791 
	C929.794312,318.142883 945.330261,322.268311 960.951233,325.988647 
	C983.796143,331.429413 1006.333557,337.795349 1027.121948,349.051727 
	C1042.063477,357.142181 1054.895996,367.748901 1062.904907,383.051331 
	C1067.862671,392.524017 1071.334595,402.672150 1070.922241,413.614105 
	C1070.770630,417.632294 1072.084229,421.417816 1071.998169,425.369812 
	C1071.648071,441.450104 1068.495850,456.826660 1060.277100,471.286438 
z"/>
<path fill="#000000" opacity="1.000000" stroke="none" 
	d="
M1601.747559,461.672394 
	C1586.795044,485.551178 1566.651733,502.509613 1540.845459,513.142334 
	C1520.775269,521.411743 1499.951050,524.376282 1478.642944,522.827087 
	C1453.064331,520.967468 1429.745483,512.343872 1409.069458,496.681763 
	C1388.064209,480.770203 1373.975342,460.208954 1365.768799,435.370270 
	C1360.347656,418.962341 1358.712646,401.989990 1360.163696,384.970032 
	C1362.346924,359.363647 1371.446777,336.042023 1387.655762,316.017212 
	C1402.210449,298.036438 1420.797241,285.392059 1442.423218,276.899017 
	C1462.616211,268.968781 1483.634399,267.427582 1504.670288,269.275726 
	C1529.453613,271.453125 1551.943970,280.551147 1571.843994,296.122375 
	C1586.630005,307.692078 1598.181763,321.712463 1606.503052,338.248322 
	C1613.781128,352.710968 1617.717285,368.190430 1619.206421,384.542786 
	C1621.453369,409.215576 1616.429688,432.152649 1605.956299,454.217316 
	C1604.788818,456.676849 1603.304810,458.986206 1601.747559,461.672394 
z"/>
<path fill="#000000" opacity="1.000000" stroke="none" 
	d="
M1631.228149,329.000000 
	C1623.539185,328.917908 1623.000732,328.402435 1623.000366,321.553894 
	C1622.999390,307.554565 1622.995361,293.555267 1623.002319,279.555939 
	C1623.005127,274.005432 1623.942139,273.053711 1629.646973,273.010559 
	C1635.812988,272.963898 1641.989624,272.788910 1648.142212,273.078979 
	C1651.850098,273.253754 1653.175903,272.457336 1653.113647,268.340240 
	C1652.847046,250.678452 1653.108887,233.009232 1652.927246,215.345291 
	C1652.878906,210.644897 1654.468872,208.869583 1659.259033,208.924744 
	C1676.089355,209.118515 1692.925293,209.149460 1709.754272,208.908310 
	C1714.759644,208.836578 1716.011475,211.241180 1716.007324,215.458450 
	C1715.989990,233.290894 1716.080078,251.124069 1715.925659,268.955200 
	C1715.898071,272.145020 1716.631104,273.121094 1719.968994,273.084564 
	C1736.799438,272.900482 1753.633057,272.999512 1770.465576,273.000183 
	C1778.182861,273.000488 1778.998657,273.792358 1778.999634,281.297333 
	C1779.001343,294.796692 1778.753662,308.302643 1779.116821,321.792236 
	C1779.270142,327.486359 1777.567871,329.052551 1771.501831,329.025940 
	C1754.503052,328.951477 1737.501831,329.127838 1720.505737,328.900482 
	C1716.761230,328.850372 1715.888672,329.776184 1715.904785,333.508118 
	C1716.062988,370.005646 1716.055908,406.504303 1715.965820,443.002289 
	C1715.939087,453.844971 1722.691406,462.550568 1734.416138,464.165222 
	C1746.317749,465.804260 1757.114624,463.009918 1767.828979,458.626373 
	C1769.307251,458.021606 1770.582642,457.106018 1772.328491,456.926331 
	C1776.271851,456.520538 1778.065796,457.872192 1778.037842,461.990326 
	C1777.940552,476.322327 1777.981079,490.655396 1778.022339,504.987915 
	C1778.028076,506.943359 1777.555420,508.072876 1775.632568,509.239166 
	C1766.275024,514.915039 1756.173950,518.254211 1745.441162,520.028015 
	C1737.155396,521.397522 1728.829102,522.586182 1720.450928,521.935242 
	C1704.890991,520.726257 1689.760986,518.260071 1676.697510,508.392822 
	C1664.298706,499.027679 1658.394775,486.201141 1654.983765,471.685822 
	C1652.697021,461.955078 1652.988892,452.078918 1652.993408,442.204651 
	C1653.009888,406.039764 1652.927124,369.874481 1653.102661,333.710449 
	C1653.122070,329.709747 1652.015625,328.684784 1648.192749,328.915619 
	C1642.713257,329.246521 1637.198730,329.000000 1631.228149,329.000000 
z"/>
<path fill="#000000" opacity="1.000000" stroke="none" 
	d="
M1866.000000,309.000000 
	C1866.000000,376.311249 1866.000488,443.122498 1865.999268,509.933746 
	C1865.999023,517.121826 1865.098877,517.998657 1857.738525,517.999512 
	C1842.077026,518.001282 1826.415405,517.956726 1810.754150,518.018677 
	C1803.203491,518.048523 1802.899414,515.804138 1802.908569,510.554993 
	C1803.041626,434.080475 1802.999634,357.605713 1803.000732,281.130981 
	C1803.000732,273.878296 1803.885986,273.001617 1811.196777,273.000641 
	C1827.024902,272.998596 1842.852905,272.991028 1858.681030,273.004547 
	C1864.875122,273.009857 1865.989990,274.164703 1865.997314,280.509338 
	C1866.008057,289.839569 1866.000000,299.169769 1866.000000,309.000000 
z"/>
<path fill="#000000" opacity="1.000000" stroke="none" 
	d="
M1820.191040,242.038528 
	C1808.233032,236.808533 1799.890137,228.575699 1797.055786,216.018234 
	C1793.125977,198.608795 1797.562378,181.907852 1814.073975,172.055786 
	C1835.385010,159.340073 1860.254883,167.624573 1870.591797,189.262512 
	C1877.197998,203.091385 1874.184570,220.774261 1863.592285,232.116425 
	C1856.271851,239.955170 1847.401001,243.777817 1837.191284,244.898453 
	C1831.534424,245.519348 1825.951172,244.076019 1820.191040,242.038528 
z"/>
<path fill="#000000" opacity="1.000000" stroke="none" 
	d="
M2296.535400,274.179138 
	C2304.866943,272.613556 2312.779297,272.259155 2320.512451,275.017975 
	C2337.460449,281.064270 2349.214600,299.343414 2345.191650,318.782104 
	C2341.549316,336.382477 2330.584473,346.852295 2313.987305,349.619507 
	C2293.683594,353.004730 2275.534424,342.758209 2270.104248,321.276520 
	C2264.653076,299.713501 2276.694824,281.070038 2296.535400,274.179138 
z"/>
<path fill="#FFFFFF" opacity="1.000000" stroke="none" 
	d="
M570.287903,312.725342 
	C553.403748,302.912201 535.920959,295.271332 518.032288,288.527374 
	C499.243988,281.444305 479.961823,275.880524 460.448090,271.322998 
	C445.513733,267.835022 430.394104,265.061615 415.164642,262.915894 
	C399.797577,260.750793 384.373688,259.370483 368.944977,257.818481 
	C340.785889,254.985962 312.602325,255.991257 284.443329,256.216522 
	C269.266907,256.337921 254.041611,258.156921 238.956726,260.119598 
	C215.269058,263.201630 191.783417,267.566559 168.891510,274.604889 
	C147.155930,281.287628 126.258598,264.311249 127.115799,242.642807 
	C127.657715,228.943771 137.122269,216.193558 154.410049,212.007767 
	C167.689819,208.792404 180.906677,205.283035 194.265411,202.439621 
	C203.447571,200.485199 212.812119,199.358719 222.118332,198.023972 
	C232.098282,196.592575 242.093277,195.247177 252.106522,194.076385 
	C256.168762,193.601410 260.333679,193.326263 264.356750,193.229218 
	C273.618683,193.005798 282.802399,191.452072 292.101807,191.953094 
	C302.362000,192.505875 312.596527,189.963837 322.837250,191.086090 
	C333.090881,192.209793 343.354462,191.563080 353.589844,192.084839 
	C366.358856,192.735748 379.162262,193.488449 391.833679,195.111542 
	C415.924500,198.197327 439.960205,201.560654 463.756470,206.766968 
	C486.397156,211.720459 508.761169,217.510925 530.612793,225.098297 
	C557.175110,234.321304 582.853394,245.642426 607.098267,260.014709 
	C619.571899,267.409027 624.588074,282.242218 622.801880,290.871918 
	C619.701294,305.851471 612.065369,315.653442 595.583679,319.132385 
	C585.960815,321.163574 578.322937,317.399445 570.287903,312.725342 
z"/>
<path fill="#FFFFFF" opacity="1.000000" stroke="none" 
	d="
M519.318726,355.734344 
	C534.719055,362.135956 548.893188,370.039764 562.474792,378.969788 
	C570.890015,384.502930 575.051819,393.029724 573.755005,402.719696 
	C571.962830,416.111816 563.763000,422.973053 553.744629,426.069397 
	C544.338013,428.976685 536.648621,425.152435 529.127869,420.559540 
	C510.683838,409.295959 491.014954,400.660522 470.869537,393.021606 
	C455.248932,387.098419 439.240356,382.373657 422.996704,378.585541 
	C409.787720,375.505127 396.494720,372.781952 383.016998,370.892303 
	C365.490814,368.435089 347.948090,366.804199 330.274048,365.731293 
	C317.486481,364.954987 304.698700,364.564362 292.014038,365.220337 
	C271.177704,366.297882 250.376648,368.076630 229.729858,371.775391 
	C214.460754,374.510803 199.454391,378.160034 184.579636,382.283020 
	C170.358536,386.224762 161.044342,379.048431 155.062637,371.165466 
	C149.268204,363.529297 149.964630,348.265533 156.271072,340.772614 
	C162.222778,333.701172 169.832657,331.441223 177.775375,329.020508 
	C191.496948,324.838562 205.546036,321.890045 219.616104,319.329315 
	C230.147156,317.412689 240.867981,316.267700 251.499268,314.818268 
	C277.874176,311.222382 304.333191,311.934418 330.779938,312.103821 
	C345.678467,312.199219 360.483704,314.128082 375.306519,315.830322 
	C397.547913,318.384460 419.443207,322.545471 441.083954,328.062164 
	C462.697723,333.571960 483.900696,340.437866 504.483643,349.103546 
	C509.357361,351.155396 514.164368,353.365753 519.318726,355.734344 
z"/>
<path fill="#FFFFFF" opacity="1.000000" stroke="none" 
	d="
M209.656448,478.714539 
	C203.727600,479.989838 197.995316,480.478668 192.638138,482.161621 
	C180.949905,485.833405 168.446442,478.367462 165.778519,466.005035 
	C163.265610,454.360931 172.662964,442.644653 183.356476,440.888824 
	C196.078918,438.799866 208.631180,435.694641 221.320831,433.378601 
	C229.304916,431.921356 237.392807,430.996063 245.457413,430.025543 
	C257.276642,428.603241 269.116394,427.351227 280.948792,426.039490 
	C281.608093,425.966400 282.282898,425.967377 282.946228,426.006531 
	C294.890259,426.710724 306.767517,424.192413 318.685059,425.057953 
	C335.689026,426.292908 352.724121,426.636780 369.706024,428.810791 
	C397.978394,432.430115 425.584137,438.525116 452.402924,448.049438 
	C476.373199,456.562164 499.339294,467.286285 520.821411,481.004181 
	C529.835876,486.760529 531.332947,495.077850 529.708191,503.159332 
	C528.073181,511.291656 521.497253,517.798035 512.339600,519.018555 
	C507.324036,519.687073 502.938019,518.867554 498.386230,516.155518 
	C474.312134,501.811371 448.843323,490.450378 421.949799,482.535004 
	C407.574738,478.304077 392.940948,475.045013 378.053253,472.933014 
	C365.101196,471.095612 352.131592,469.828369 339.087555,468.775238 
	C323.472107,467.514526 307.888947,467.849976 292.337067,468.213654 
	C277.816101,468.553253 263.290039,470.297821 248.852737,472.112183 
	C235.848587,473.746399 222.961716,476.313782 209.656448,478.714539 
z"/>
<path fill="#FFFFFF" opacity="1.000000" stroke="none" 
	d="
M1213.302368,466.998993 
	C1206.811279,465.338348 1200.582764,464.781708 1194.643921,462.391632 
	C1177.446533,455.470490 1166.282837,442.715149 1159.175415,426.240295 
	C1154.789673,416.074402 1152.509521,405.111969 1153.108276,394.003998 
	C1154.234741,373.108368 1160.584961,354.135010 1176.787354,339.853882 
	C1186.127441,331.621399 1197.070190,326.711578 1209.682251,324.808777 
	C1222.703613,322.844208 1234.535156,325.501587 1245.744629,331.418304 
	C1261.890869,339.940735 1272.109131,353.810364 1276.807129,371.063477 
	C1283.377441,395.192780 1281.773560,419.001617 1267.700684,440.333862 
	C1258.038574,454.980286 1244.168457,464.201874 1226.026855,466.158966 
	C1221.926392,466.601318 1217.865845,466.891357 1213.302368,466.998993 
z"/>
<path fill="#FFFFFF" opacity="1.000000" stroke="none" 
	d="
M1439.187500,347.315430 
	C1450.309814,334.789886 1464.044800,327.288757 1480.090698,325.248108 
	C1491.581543,323.786774 1503.238770,324.783600 1514.237305,329.635498 
	C1539.011597,340.564331 1552.288330,359.691254 1556.094238,386.249542 
	C1559.008667,406.586487 1554.427734,425.019592 1542.709351,441.436951 
	C1533.046631,454.974487 1519.477295,463.240356 1502.891113,465.982269 
	C1479.051758,469.923248 1458.380981,463.774872 1441.596924,446.058990 
	C1432.137451,436.074158 1426.494385,423.965668 1424.110840,410.578094 
	C1420.980713,392.997498 1422.949463,375.856506 1431.095215,359.768066 
	C1433.265747,355.481201 1436.305176,351.634216 1439.187500,347.315430 
z"/>
<path fill="#FFFFFF" opacity="1.000000" stroke="none" 
	d="
M2328.162598,284.667053 
	C2336.621826,292.429321 2341.498047,301.597229 2340.919189,312.838165 
	C2340.034180,330.030060 2326.701660,344.419983 2308.563232,345.145905 
	C2292.607910,345.784424 2277.261475,334.422699 2274.145752,317.042206 
	C2272.043213,305.316040 2277.763428,291.828888 2287.353271,284.874634 
	C2300.958984,275.008362 2314.295898,276.022583 2328.162598,284.667053 
z"/>
<path fill="#000000" opacity="1.000000" stroke="none" 
	d="
M2292.000000,319.980225 
	C2292.000000,310.819214 2292.119141,302.153412 2291.932617,293.494171 
	C2291.871094,290.645966 2292.700195,289.686462 2295.520508,289.967682 
	C2302.228271,290.636566 2308.979004,289.154083 2315.730957,290.826080 
	C2321.432129,292.237823 2324.882812,295.700714 2325.839600,301.054108 
	C2326.749756,306.145782 2324.740967,310.843750 2320.426514,313.910583 
	C2317.785156,315.788147 2317.449707,316.874908 2319.717041,319.460205 
	C2322.539062,322.678101 2324.647705,326.521851 2327.104980,330.154938 
	C2319.182373,332.299774 2317.396484,331.453033 2312.938477,325.061279 
	C2310.365234,321.371887 2309.057617,315.810394 2302.449219,316.904175 
	C2300.548340,317.218811 2299.852783,317.616943 2299.969971,319.526276 
	C2300.102295,321.683929 2299.664795,323.920593 2300.066650,326.008972 
	C2301.038086,331.055695 2298.237793,331.282806 2294.473633,331.071320 
	C2292.509277,330.960876 2291.872559,330.393433 2291.967529,328.473175 
	C2292.099121,325.814056 2292.000244,323.143555 2292.000000,319.980225 
z"/>
<path fill="#FFFFFF" opacity="1.000000" stroke="none" 
	d="
M2313.216064,308.922852 
	C2309.978760,308.993591 2307.128174,308.694031 2304.370361,309.072266 
	C2300.411865,309.615143 2299.268066,307.877899 2300.048340,304.436523 
	C2300.533691,302.297089 2298.296143,299.184418 2301.544922,298.095245 
	C2306.652344,296.383087 2314.223145,298.320923 2316.038330,301.046844 
	C2318.520020,304.773376 2315.911621,306.709351 2313.216064,308.922852 
z"/>
</svg>